<svg id="visual" viewBox="0 0 960 540" width="960" height="540" xmlns="http://www.w3.org/2000/svg" xmlns:xlink="http://www.w3.org/1999/xlink" version="1.1"><rect x="0" y="0" width="960" height="540" fill="#FFFFFF"></rect><path d="M0 121L22.8 146.5C45.7 172 91.3 223 137 229.8C182.7 236.7 228.3 199.3 274 167.3C319.7 135.3 365.3 108.7 411.2 118C457 127.3 503 172.7 548.8 195.8C594.7 219 640.3 220 686 231.5C731.7 243 777.3 265 823 256.7C868.7 248.3 914.3 209.7 937.2 190.3L960 171L960 541L937.2 541C914.3 541 868.7 541 823 541C777.3 541 731.7 541 686 541C640.3 541 594.7 541 548.8 541C503 541 457 541 411.2 541C365.3 541 319.7 541 274 541C228.3 541 182.7 541 137 541C91.3 541 45.7 541 22.8 541L0 541Z" fill="#366185"></path><path d="M0 249L22.8 278.7C45.7 308.3 91.3 367.7 137 363.3C182.7 359 228.3 291 274 250.7C319.7 210.3 365.3 197.7 411.2 195.8C457 194 503 203 548.8 242.5C594.7 282 640.3 352 686 389.8C731.7 427.7 777.3 433.3 823 408.5C868.7 383.7 914.3 328.3 937.2 300.7L960 273L960 541L937.2 541C914.3 541 868.7 541 823 541C777.3 541 731.7 541 686 541C640.3 541 594.7 541 548.8 541C503 541 457 541 411.2 541C365.3 541 319.7 541 274 541C228.3 541 182.7 541 137 541C91.3 541 45.7 541 22.8 541L0 541Z" fill="#517a9d"></path><path d="M0 403L22.8 391C45.7 379 91.3 355 137 362.3C182.7 369.7 228.3 408.3 274 418.7C319.7 429 365.3 411 411.2 402.3C457 393.7 503 394.3 548.8 406.2C594.7 418 640.3 441 686 418.8C731.7 396.7 777.3 329.3 823 319.3C868.7 309.3 914.3 356.7 937.2 380.3L960 404L960 541L937.2 541C914.3 541 868.7 541 823 541C777.3 541 731.7 541 686 541C640.3 541 594.7 541 548.8 541C503 541 457 541 411.2 541C365.3 541 319.7 541 274 541C228.3 541 182.7 541 137 541C91.3 541 45.7 541 22.8 541L0 541Z" fill="#618aab"></path><path d="M0 461L22.8 460.2C45.7 459.3 91.3 457.7 137 443.8C182.7 430 228.3 404 274 383.3C319.7 362.7 365.3 347.3 411.2 341.3C457 335.3 503 338.7 548.8 335.5C594.7 332.3 640.3 322.7 686 346.5C731.7 370.3 777.3 427.7 823 428.8C868.7 430 914.3 375 937.2 347.5L960 320L960 541L937.2 541C914.3 541 868.7 541 823 541C777.3 541 731.7 541 686 541C640.3 541 594.7 541 548.8 541C503 541 457 541 411.2 541C365.3 541 319.7 541 274 541C228.3 541 182.7 541 137 541C91.3 541 45.7 541 22.8 541L0 541Z" fill="#517a9d"></path><path d="M0 523L22.8 507.7C45.7 492.3 91.3 461.7 137 451C182.7 440.3 228.3 449.7 274 443.5C319.7 437.3 365.3 415.7 411.2 425.8C457 436 503 478 548.8 484.5C594.7 491 640.3 462 686 446.3C731.7 430.7 777.3 428.3 823 433.8C868.7 439.3 914.3 452.7 937.2 459.3L960 466L960 541L937.2 541C914.3 541 868.7 541 823 541C777.3 541 731.7 541 686 541C640.3 541 594.7 541 548.8 541C503 541 457 541 411.2 541C365.3 541 319.7 541 274 541C228.3 541 182.7 541 137 541C91.3 541 45.7 541 22.8 541L0 541Z" fill="#366185"></path></svg>